<svg xmlns="http://www.w3.org/2000/svg" width="24" height="24" viewBox="0 0 24 24"><g fill="none"><path fill="currentColor" fill-opacity="0.16" d="M8.4 3H4.6A1.6 1.6 0 0 0 3 4.6v3.8A1.6 1.6 0 0 0 4.6 10h3.8A1.6 1.6 0 0 0 10 8.4V4.6A1.6 1.6 0 0 0 8.4 3m11 11h-3.8a1.6 1.6 0 0 0-1.6 1.6v3.8a1.6 1.6 0 0 0 1.6 1.6h3.8a1.6 1.6 0 0 0 1.6-1.6v-3.8a1.6 1.6 0 0 0-1.6-1.6"/><path stroke="currentColor" stroke-linejoin="round" stroke-miterlimit="10" stroke-width="1.5" d="M8.4 3H4.6A1.6 1.6 0 0 0 3 4.6v3.8A1.6 1.6 0 0 0 4.6 10h3.8A1.6 1.6 0 0 0 10 8.4V4.6A1.6 1.6 0 0 0 8.4 3Zm11 0h-3.8A1.6 1.6 0 0 0 14 4.6v3.8a1.6 1.6 0 0 0 1.6 1.6h3.8A1.6 1.6 0 0 0 21 8.4V4.6A1.6 1.6 0 0 0 19.4 3Zm-11 11H4.6A1.6 1.6 0 0 0 3 15.6v3.8A1.6 1.6 0 0 0 4.6 21h3.8a1.6 1.6 0 0 0 1.6-1.6v-3.8A1.6 1.6 0 0 0 8.4 14Zm11 0h-3.8a1.6 1.6 0 0 0-1.6 1.6v3.8a1.6 1.6 0 0 0 1.6 1.6h3.8a1.6 1.6 0 0 0 1.6-1.6v-3.8a1.6 1.6 0 0 0-1.6-1.6Z"/></g></svg>