<svg xmlns="http://www.w3.org/2000/svg" width="36" height="36" viewBox="0 0 36 36"><path fill="currentColor" d="M26.58 32h-18a1 1 0 1 0 0 2h18a1 1 0 0 0 0-2" class="clr-i-outline clr-i-outline-path-1"/><path fill="currentColor" d="M17.75 2a14 14 0 0 0-14 14c0 .45 0 .89.07 1.33A14 14 0 1 0 17.75 2m0 2a12 12 0 0 1 8.44 3.48v1A18.5 18.5 0 0 0 14 8.53a2.33 2.33 0 0 0-1.14-.61h-.25c-.12-.42-.23-.84-.32-1.27s-.14-.81-.19-1.22A11.9 11.9 0 0 1 17.75 4m-3 5.87a17 17 0 0 1 11.17.13a16.9 16.9 0 0 1-3.11 7a2.28 2.28 0 0 0-2.58.57c-.35-.2-.7-.4-1-.63a16 16 0 0 1-4.93-5.23a2.25 2.25 0 0 0 .47-1.77Zm-4-3.6c0 .21.06.43.1.64c.09.44.21.87.33 1.3a2.28 2.28 0 0 0-1.1 2.25a18.3 18.3 0 0 0-4.18 3.76a12 12 0 0 1 4.86-7.95Zm0 15.71a2.34 2.34 0 0 0-1.55 1.76h-.64a11.94 11.94 0 0 1-2.76-6.82l.11-.19a16.9 16.9 0 0 1 4.81-4.89a2.31 2.31 0 0 0 2.28.63a17.5 17.5 0 0 0 5.35 5.65c.41.27.83.52 1.25.76a2.3 2.3 0 0 0 .18 1.12a16.9 16.9 0 0 1-6.2 3.11A2.34 2.34 0 0 0 10.76 22Zm7 6a11.9 11.9 0 0 1-5.81-1.51l.28-.06a2.34 2.34 0 0 0 1.57-1.79a18.4 18.4 0 0 0 7-3.5a2.29 2.29 0 0 0 3-.62a17.4 17.4 0 0 0 4.32.56h.53A12 12 0 0 1 17.75 28Zm6.51-8.9a2.33 2.33 0 0 0-.33-1.19a18.4 18.4 0 0 0 3.39-7.37q.75.35 1.48.78a12 12 0 0 1 .42 8.2a16 16 0 0 1-4.95-.39Z" class="clr-i-outline clr-i-outline-path-2"/><path fill="none" d="M0 0h36v36H0z"/></svg>