<?xml version="1.0" standalone="no"?><!DOCTYPE svg PUBLIC "-//W3C//DTD SVG 1.1//EN" "http://www.w3.org/Graphics/SVG/1.1/DTD/svg11.dtd"><svg t="1680523555083" class="icon" viewBox="0 0 1024 1024" version="1.1" xmlns="http://www.w3.org/2000/svg" p-id="2792" data-spm-anchor-id="a313x.7781069.0.i3" xmlns:xlink="http://www.w3.org/1999/xlink" width="200" height="200"><path d="M 294.463 225.073 A 142.44 142.44 0 0 0 151.719 367.817 v 35.6901 c 0 79.0825 63.6699 142.752 142.744 142.752 H 602.233 l -42.6951 -51.2148 H 267.773 a 35.8825 35.8825 0 0 1 -35.9626 -35.9626 V 315.248 a 35.8825 35.8825 0 0 1 35.9626 -35.9626 h 491.446 a 35.8825 35.8825 0 0 1 35.9626 35.9626 v 143.834 a 35.8825 35.8825 0 0 1 -35.9626 35.9626 H 632.569 l 42.6871 51.2148 h 54.2765 c 79.0825 0 142.744 -63.6699 142.744 -142.744 v -35.6901 c 0 -79.0825 -63.6619 -142.744 -142.744 -142.744 Z" p-id="2793" data-spm-anchor-id="a313x.7781069.0.i0" class="selected" fill="#00adef"></path><path d="M 387.195 328.32 a 20.9668 20.9668 0 0 0 -20.9748 20.9748 v 68.2865 a 20.9668 20.9668 0 0 0 20.9748 20.9748 a 20.9668 20.9668 0 0 0 20.9588 -20.9748 v -68.2865 a 20.9668 20.9668 0 0 0 -20.9588 -20.9748 Z M 637.899 328.905 a 20.9668 20.9668 0 0 0 -20.9588 20.9588 v 68.2945 a 20.9668 20.9668 0 0 0 20.9588 20.9588 a 20.9668 20.9668 0 0 0 20.9829 -20.9588 v -68.2945 a 20.9668 20.9668 0 0 0 -20.9829 -20.9588 Z" p-id="2794" data-spm-anchor-id="a313x.7781069.0.i1" class="selected" fill="#00adef"></path><path d="M 315.855 80.3007 a 40.7635 39.3529 0 0 0 -40.6112 39.3529 a 40.7635 39.3529 0 0 0 28.3725 37.4934 v 54.5731 h 24.0445 v -54.3567 a 40.7635 39.3529 0 0 0 29.1019 -37.7179 a 40.7635 39.3529 0 0 0 -40.7555 -39.3529 a 40.7635 39.3529 0 0 0 -0.160297 0 Z" p-id="2795" data-spm-anchor-id="a313x.7781069.0.i8" class="selected" fill="#00adef"></path><path d="M 675.601 602.636 l 2.13996 16.0297 H 797.715 l -35.4416 309.157 H 631.118 l -32.4521 -309.149 h 32.8769 l -2.17202 -16.0297 h -39.5933 l -7.96675 8.84037 l 34.1192 325.194 l 7.97477 7.17329 h 145.534 l 7.96675 -7.09314 l 37.253 -325.194 l -7.95072 -8.92052 Z" p-id="2796" data-spm-anchor-id="a313x.7781069.0.i6" class="selected" fill="#00adef"></path><path d="M 570.302 455.107 c -2.69299 0.072134 -5.28178 1.05796 -7.35763 2.78115 a 11.902 11.902 0 0 0 -1.54686 16.9434 l 74.3537 89.2052 l 20.7985 171.309 h -34.1112 l 20.0772 182.033 l 110.493 -1.10605 l 21.039 -180.927 H 681.019 l -20.542 -179.212 l -80.5812 -96.7071 a 12.0223 12.0223 0 0 0 -9.58575 -4.32801 Z" p-id="2797" data-spm-anchor-id="a313x.7781069.0.i5" class="selected" fill="#00adef"></path><path d="M 696.64 80.1484 a 40.7635 39.3529 0 0 0 -40.6112 39.3529 a 40.7635 39.3529 0 0 0 28.3725 37.4934 v 54.5811 h 24.0445 v -54.3647 a 40.7635 39.3529 0 0 0 29.1019 -37.7098 A 40.7635 39.3529 0 0 0 696.784 80.1484 a 40.7635 39.3529 0 0 0 -0.144267 0 Z" p-id="2798" data-spm-anchor-id="a313x.7781069.0.i2" class="selected" fill="#00adef"></path><path d="M 313.33 645.467 q 0 10.9723 -4.9692 20.518 q -4.98523 9.55369 -13.6252 15.0759 q -8.55985 5.53024 -19.0272 5.53024 q -15.4446 0 -27.01 -12.0944 v 31.1938 h 15.0118 v 13.7294 h -44.0656 v -13.7294 h 13.9058 V 619.644 h -12.8799 V 605.842 h 28.0359 v 12.5352 q 5.70657 -6.86071 12.5833 -10.2189 q 6.88475 -3.36623 14.7153 -3.36623 q 10.9002 0 19.3959 5.53024 q 8.48772 5.45009 13.1684 14.7714 q 4.76082 9.32928 4.76082 20.3737 Z m -37.8381 27.01 q 6.29165 0 11.341 -3.7269 t 7.91065 -10.1468 q 2.85328 -6.41989 2.85328 -13.5852 q 0 -7.2374 -3.14983 -13.2806 q -3.14983 -6.12334 -8.64 -9.69796 q -5.48215 -3.66278 -12.3669 -3.66278 q -7.17329 0 -12.8799 3.87918 q -5.70657 3.80705 -8.8564 10.1548 q -3.14983 6.33974 -3.14983 13.9458 q 0 12.2467 7.53395 19.1875 q 7.6141 6.94085 19.3959 6.94085 Z M 350.879 579.425 q 0 3.80705 -2.70902 6.57217 q -2.70902 2.75711 -6.44393 2.75711 q -3.7269 0 -6.36378 -2.76512 q -2.63688 -2.75711 -2.63688 -6.57217 q 0 -3.79904 2.63688 -6.56416 q 2.63688 -2.75711 6.36378 -2.75711 q 3.87918 0 6.51607 2.68497 q 2.63688 2.68497 2.63688 6.64431 Z M 361.707 670.546 v 13.7294 h -38.864 v -13.7294 h 12.0062 v -50.8943 H 322.835 V 605.842 h 27.1543 v 64.7038 Z M 460.587 645.467 q 0 10.9723 -4.9692 20.518 q -4.97722 9.55369 -13.6252 15.0759 q -8.55184 5.53024 -19.0192 5.53024 q -15.4446 0 -27.01 -12.0944 v 31.1938 h 15.0038 v 13.7294 h -44.0576 v -13.7294 h 13.9058 V 619.644 h -12.8879 V 605.842 h 28.0359 v 12.5352 q 5.70657 -6.86071 12.5833 -10.2189 q 6.89277 -3.36623 14.7153 -3.36623 q 10.9002 0 19.3959 5.53024 q 8.49573 5.45009 13.1764 14.7714 q 4.7528 9.32928 4.7528 20.3737 Z m -37.8301 27.01 q 6.29165 0 11.341 -3.7269 t 7.90264 -10.1468 q 2.85328 -6.41989 2.85328 -13.5852 q 0 -7.2374 -3.14983 -13.2806 q -3.14182 -6.12334 -8.63199 -9.69796 q -5.49017 -3.66278 -12.3669 -3.66278 q -7.17329 0 -12.8879 3.87918 q -5.70657 3.80705 -8.8564 10.1548 q -3.14182 6.33974 -3.14182 13.9458 q 0 12.2467 7.53395 19.1875 q 7.6141 6.94085 19.3959 6.94085 Z M 495.211 619.644 l 16.6869 44.3301 l 16.174 -44.3221 H 517.837 V 605.842 h 36.74 v 13.8016 h -11.349 l -37.9904 99.7848 h -25.6074 v -13.4409 h 15.1481 l 9.15295 -23.0587 l -25.1826 -63.2852 h -12.8799 V 605.842 h 38.4953 v 13.8016 Z" p-id="2799" data-spm-anchor-id="a313x.7781069.0.i4" class="selected" fill="#00adef"></path></svg>